<?xml version="1.0" encoding="UTF-8" standalone="no"?>
<!-- Created with Inkscape (http://www.inkscape.org/) -->

<svg
   version="1.1"
   id="svg2"
   xml:space="preserve"
   width="1513.9333"
   height="580.09601"
   viewBox="0 0 1513.9333 580.09601"
   sodipodi:docname="Logo Uo Supermileage.svg"
   inkscape:version="1.1 (c68e22c387, 2021-05-23)"
   xmlns:inkscape="http://www.inkscape.org/namespaces/inkscape"
   xmlns:sodipodi="http://sodipodi.sourceforge.net/DTD/sodipodi-0.dtd"
   xmlns="http://www.w3.org/2000/svg"
   xmlns:svg="http://www.w3.org/2000/svg"><defs
     id="defs6"><clipPath
       clipPathUnits="userSpaceOnUse"
       id="clipPath16"><path
         d="M 0,435.072 H 1135.447 V 0 H 0 Z"
         id="path14" /></clipPath></defs><sodipodi:namedview
     id="namedview4"
     pagecolor="#ffffff"
     bordercolor="#cccccc"
     borderopacity="1"
     inkscape:pageshadow="0"
     inkscape:pageopacity="1"
     inkscape:pagecheckerboard="0"
     showgrid="false"
     inkscape:zoom="0.39730943"
     inkscape:cx="990.41192"
     inkscape:cy="57.889388"
     inkscape:window-width="1920"
     inkscape:window-height="1018"
     inkscape:window-x="-6"
     inkscape:window-y="-6"
     inkscape:window-maximized="1"
     inkscape:current-layer="g8" /><g
     id="g8"
     inkscape:groupmode="layer"
     inkscape:label="Logo Uo Supermileage"
     transform="matrix(1.3333333,0,0,-1.3333333,0,580.096)"><g
       id="g10"><g
         id="g12"
         clip-path="url(#clipPath16)"><g
           id="g18"
           transform="translate(619.7888,108.2485)"><path
             d="m 0,0 h -10.336 c -0.939,0 -1.326,0.529 -1.163,1.59 l 5.872,37.982 c 1.141,7.665 3.965,13.221 8.471,16.666 4.505,3.446 10.673,5.169 18.502,5.169 1.835,0 3.679,-0.061 5.535,-0.183 1.855,-0.123 3.496,-0.287 4.924,-0.49 2.364,-0.408 3.383,-1.733 3.058,-3.975 L 33.762,51.07 c -0.123,-0.856 -0.653,-1.284 -1.591,-1.284 -1.06,0 -2.854,0.02 -5.382,0.061 -2.529,0.041 -5.056,0.061 -7.584,0.061 -3.303,0 -5.882,-0.633 -7.737,-1.895 C 9.612,46.748 8.44,44.587 7.951,41.529 L 1.835,1.59 C 1.671,0.529 1.06,0 0,0 m -42.035,35.597 c 2.731,0.448 4.924,0.937 6.575,1.467 1.651,0.53 2.925,1.121 3.823,1.774 0.896,0.651 1.518,1.406 1.865,2.263 0.346,0.856 0.601,1.875 0.765,3.058 0.367,2.568 -0.378,4.443 -2.233,5.627 -1.856,1.182 -5.209,1.773 -10.061,1.773 -3.547,0 -6.494,-0.295 -8.838,-0.886 -2.345,-0.592 -4.261,-1.581 -5.749,-2.967 -1.489,-1.387 -2.63,-3.18 -3.426,-5.382 -0.794,-2.202 -1.437,-4.914 -1.926,-8.135 l -0.245,-1.957 z M -58.121,13.578 c 2.609,-1.387 6.809,-2.08 12.6,-2.08 1.957,0 4.006,0.051 6.146,0.153 2.142,0.101 4.19,0.234 6.147,0.398 1.958,0.162 3.64,0.295 5.046,0.397 1.407,0.102 2.334,0.153 2.784,0.153 0.937,0 1.324,-0.531 1.162,-1.59 l -0.612,-5.505 c -0.082,-1.59 -0.592,-2.763 -1.53,-3.517 -0.938,-0.755 -2.161,-1.233 -3.669,-1.437 -2.08,-0.244 -4.74,-0.418 -7.982,-0.52 -3.242,-0.102 -6.942,-0.153 -11.101,-0.153 -6.116,0 -11.05,0.754 -14.801,2.264 -3.752,1.507 -6.586,3.627 -8.502,6.36 -1.917,2.731 -3.049,6.056 -3.394,9.97 -0.347,3.914 -0.153,8.338 0.581,13.272 0.856,5.911 2.242,10.857 4.159,14.832 1.916,3.976 4.332,7.146 7.248,9.511 2.914,2.364 6.299,4.026 10.152,4.984 3.854,0.958 8.186,1.438 12.997,1.438 5.586,0 10.123,-0.541 13.609,-1.621 3.487,-1.08 6.157,-2.477 8.013,-4.19 1.855,-1.713 3.017,-3.638 3.486,-5.779 0.468,-2.142 0.56,-4.292 0.275,-6.453 -0.408,-2.774 -1.142,-5.179 -2.202,-7.217 -1.06,-2.04 -2.518,-3.762 -4.373,-5.169 -1.856,-1.406 -4.108,-2.559 -6.758,-3.455 -2.652,-0.898 -5.791,-1.673 -9.419,-2.324 l -24.282,-4.221 c 0.204,-4.281 1.61,-7.116 4.22,-8.501 m -51.514,-1.01 c 2.569,0.795 4.638,1.967 6.208,3.517 1.569,1.55 2.752,3.486 3.548,5.81 0.794,2.325 1.437,5.037 1.926,8.135 0.652,4.363 0.876,7.869 0.673,10.521 -0.205,2.649 -0.948,4.688 -2.233,6.116 -1.284,1.427 -3.079,2.385 -5.382,2.874 -2.304,0.489 -5.271,0.734 -8.899,0.734 -2.447,0 -4.587,-0.082 -6.422,-0.245 -1.835,-0.163 -3.303,-0.407 -4.404,-0.733 -0.571,-0.205 -1.02,-0.47 -1.345,-0.795 -0.328,-0.327 -0.551,-0.918 -0.673,-1.775 l -5.322,-34.251 c 0.938,-0.327 2.661,-0.591 5.169,-0.794 2.507,-0.205 4.984,-0.306 7.431,-0.306 3.915,0 7.156,0.397 9.725,1.192 m -28.991,41.989 c 0.245,1.589 0.795,2.761 1.651,3.516 0.856,0.754 2.12,1.294 3.792,1.621 3.466,0.612 6.829,1.132 10.092,1.56 3.262,0.429 7.298,0.642 12.11,0.642 6.687,0 11.947,-0.745 15.78,-2.232 3.832,-1.489 6.657,-3.64 8.472,-6.453 1.813,-2.814 2.813,-6.157 2.996,-10.03 0.184,-3.875 -0.091,-8.217 -0.826,-13.029 -0.978,-6.238 -2.62,-11.325 -4.923,-15.259 -2.304,-3.936 -5.046,-7.025 -8.226,-9.266 -3.181,-2.243 -6.688,-3.762 -10.521,-4.557 -3.833,-0.796 -7.767,-1.193 -11.804,-1.193 -3.18,0 -5.953,0.051 -8.318,0.153 -2.365,0.102 -4.2,0.214 -5.505,0.336 l -2.691,-17.37 c -0.611,-4.036 -2.834,-6.055 -6.666,-6.055 h -6.056 c -0.938,0 -1.325,0.469 -1.162,1.407 z m -79.038,-33.395 6.177,39.389 c 0.123,0.978 0.673,1.467 1.651,1.467 h 10.582 c 0.937,0 1.345,-0.489 1.223,-1.467 l -5.871,-37.248 c -0.735,-4.812 -0.276,-8.013 1.376,-9.603 1.651,-1.591 5.208,-2.386 10.672,-2.386 4.16,0 7.33,0.072 9.511,0.214 2.181,0.143 3.863,0.377 5.046,0.704 1.182,0.326 1.855,0.979 2.019,1.957 L -168,60.551 c 0.122,0.978 0.673,1.467 1.651,1.467 h 10.337 c 1.141,0 1.651,-0.489 1.529,-1.467 l -8.44,-53.579 c -0.49,-3.058 -2.285,-4.831 -5.383,-5.321 -3.67,-0.775 -7.452,-1.326 -11.345,-1.651 -3.895,-0.326 -8.819,-0.49 -14.771,-0.49 -9.46,0 -16.005,1.682 -19.634,5.047 -3.629,3.363 -4.831,8.898 -3.608,16.605 m -33.533,2.263 -18.104,4.526 c -6.932,1.671 -11.612,3.74 -14.037,6.208 -2.427,2.467 -3.252,5.8 -2.477,10 0.937,5.26 4.057,9.633 9.358,13.119 5.3,3.487 13.516,5.23 24.648,5.23 5.831,0 10.265,-0.122 13.303,-0.367 3.037,-0.245 5.555,-0.55 7.554,-0.917 1.508,-0.206 2.721,-0.643 3.639,-1.316 0.917,-0.673 1.09,-1.784 0.52,-3.333 l -1.04,-5.566 c -0.122,-0.734 -0.591,-1.101 -1.407,-1.101 -0.694,0 -1.58,0.062 -2.66,0.184 -1.081,0.122 -2.488,0.275 -4.221,0.459 -1.733,0.183 -3.924,0.367 -6.574,0.55 -2.652,0.183 -6.016,0.275 -10.092,0.275 -5.546,0 -9.685,-0.428 -12.416,-1.284 -2.733,-0.857 -4.323,-2.488 -4.771,-4.893 -0.489,-2.732 1.753,-4.648 6.728,-5.75 l 18.777,-4.465 c 6.32,-1.467 10.734,-3.516 13.241,-6.146 2.508,-2.63 3.374,-6.046 2.6,-10.245 -1.101,-6.117 -4.384,-10.825 -9.847,-14.128 -5.465,-3.303 -13.619,-4.955 -24.466,-4.955 -5.871,0 -10.794,0.183 -14.77,0.55 -3.976,0.368 -7.361,0.897 -10.153,1.591 -2.794,0.693 -3.945,2.425 -3.456,5.199 l 1.285,5.932 c 0.162,0.857 0.713,1.285 1.651,1.285 1.427,0 4.057,-0.541 7.89,-1.621 3.832,-1.081 9.867,-1.621 18.104,-1.621 5.953,0 10.326,0.602 13.119,1.805 2.793,1.202 4.393,2.884 4.802,5.046 0.284,1.671 -0.286,2.905 -1.713,3.7 -1.427,0.795 -3.099,1.477 -5.015,2.049"
             style="fill:#ec7000;fill-opacity:1;fill-rule:nonzero;stroke:none"
             id="path20" /></g><g
           id="g22"
           transform="translate(351.7921,247.3803)"><path
             d="m 0,0 14.018,76.507 c 0.315,1.9 1.584,2.85 3.802,2.85 h 23.878 c 2.139,0 3.048,-0.95 2.733,-2.85 L 31.244,4.157 c -1.743,-9.346 -0.733,-15.562 3.029,-18.651 3.761,-3.089 11.821,-4.633 24.176,-4.633 9.344,0 16.493,0.138 21.444,0.416 4.948,0.276 8.75,0.731 11.404,1.366 2.653,0.633 4.138,1.901 4.455,3.802 l 16.394,90.05 c 0.396,1.9 1.703,2.85 3.921,2.85 h 23.285 c 2.613,0 3.721,-0.95 3.326,-2.85 L 123.67,-27.562 c -1.03,-5.94 -5.109,-9.385 -12.236,-10.335 -8.238,-1.505 -16.751,-2.575 -25.542,-3.208 -8.791,-0.633 -19.881,-0.951 -33.264,-0.951 -21.384,0 -36.174,3.268 -44.372,9.802 C 0.059,-25.721 -2.692,-14.969 0,0"
             style="fill:#231f20;fill-opacity:1;fill-rule:nonzero;stroke:none"
             id="path24" /></g><g
           id="g26"
           transform="translate(617.3391,268.4077)"><path
             d="m 0,0 c 2.296,12.671 1.247,21.878 -3.148,27.621 -4.396,5.741 -14.396,8.612 -29.997,8.612 -15.761,0 -26.869,-2.871 -33.323,-8.612 C -72.924,21.878 -77.26,12.671 -79.477,0 c -2.931,-16.157 -1.802,-26.89 3.386,-32.194 5.186,-5.308 14.948,-7.96 29.284,-7.96 14.176,0 24.808,2.652 31.898,7.96 C -7.822,-26.89 -2.851,-16.157 0,0 m -109.771,0 c 4.039,22.492 13.543,37.876 28.512,46.153 14.969,8.276 32.314,12.415 52.034,12.415 19.641,0 35.581,-4.139 47.817,-12.415 C 30.829,37.876 34.966,22.492 31.006,0 29.343,-8.951 26.849,-17.246 23.522,-24.889 20.196,-32.532 15.344,-39.126 8.969,-44.669 2.593,-50.213 -5.426,-54.57 -15.087,-57.736 c -9.664,-3.169 -21.583,-4.752 -35.759,-4.752 -14.256,0 -25.642,1.583 -34.155,4.752 -8.515,3.166 -14.87,7.523 -19.067,13.067 -4.199,5.543 -6.594,12.137 -7.187,19.78 -0.595,7.643 -0.101,15.938 1.484,24.889"
             style="fill:#231f20;fill-opacity:1;fill-rule:nonzero;stroke:none"
             id="path28" /></g><g
           id="g30"
           transform="translate(768.7965,148.7993)"><path
             d="m 0,0 -6.912,-39.45 c -0.163,-0.898 -0.897,-1.346 -2.201,-1.346 h -11.866 c -1.264,0 -1.814,0.448 -1.651,1.346 l 6.544,37.492 c 0.775,4.404 0.357,7.441 -1.254,9.113 -1.611,1.672 -4.883,2.508 -9.816,2.508 -4.037,0 -7.646,-0.347 -10.826,-1.039 -1.101,-0.205 -1.734,-0.857 -1.896,-1.958 l -8.074,-46.116 c -0.163,-0.898 -0.897,-1.346 -2.201,-1.346 h -12.294 c -1.02,0 -1.448,0.448 -1.284,1.346 l 6.789,38.777 c 0.652,3.792 0.284,6.462 -1.101,8.012 -1.387,1.55 -5.016,2.324 -10.887,2.324 -4.649,0 -8.156,-0.347 -10.52,-1.039 -1.346,0 -2.121,-0.653 -2.324,-1.958 l -8.074,-46.116 c -0.163,-0.898 -0.877,-1.346 -2.141,-1.346 h -11.926 c -1.265,0 -1.815,0.448 -1.652,1.346 l 9.358,53.394 c 0.489,2.896 2.589,4.669 6.3,5.322 3.914,0.652 7.971,1.202 12.171,1.651 4.199,0.448 8.848,0.673 13.946,0.673 3.547,0 6.819,-0.276 9.816,-0.825 2.997,-0.551 5.433,-1.276 7.309,-2.172 2.65,0.652 5.831,1.315 9.541,1.988 3.71,0.673 7.625,1.009 11.744,1.009 C -5.974,21.59 2.487,14.392 0,0"
             style="fill:#231f20;fill-opacity:1;fill-rule:nonzero;stroke:none"
             id="path32" /></g><g
           id="g34"
           transform="translate(784.2252,187.27)"><path
             d="M 0,0 C 0.856,5.342 3.874,8.013 9.052,8.013 14.19,8.013 16.331,5.342 15.474,0 14.699,-5.138 11.743,-7.706 6.605,-7.706 1.427,-7.706 -0.775,-5.138 0,0 m -9.725,-79.267 c -0.897,0 -1.284,0.449 -1.162,1.346 l 8.135,52.845 c 0.57,3.914 2.813,5.871 6.728,5.871 h 5.871 c 0.897,0 1.285,-0.449 1.162,-1.346 L 2.202,-77.921 C 2.08,-78.818 1.569,-79.267 0.673,-79.267 Z"
             style="fill:#231f20;fill-opacity:1;fill-rule:nonzero;stroke:none"
             id="path36" /></g><g
           id="g38"
           transform="translate(814.3331,108.187)"><path
             d="m 0,0 h -11.621 c -0.939,0 -1.326,0.551 -1.162,1.651 L -0.551,81.04 c 0.693,4.648 3.14,6.973 7.34,6.973 h 6.728 c 1.06,0 1.508,-0.55 1.345,-1.652 L 1.835,1.651 C 1.671,0.551 1.06,0 0,0"
             style="fill:#231f20;fill-opacity:1;fill-rule:nonzero;stroke:none"
             id="path40" /></g><g
           id="g42"
           transform="translate(868.6613,143.8452)"><path
             d="m 0,0 c 2.731,0.448 4.923,0.937 6.575,1.468 1.651,0.529 2.925,1.121 3.822,1.773 0.897,0.652 1.519,1.406 1.866,2.263 0.346,0.856 0.601,1.875 0.764,3.059 0.368,2.568 -0.377,4.443 -2.232,5.626 -1.856,1.182 -5.209,1.774 -10.061,1.774 -3.547,0 -6.494,-0.296 -8.838,-0.887 -2.346,-0.592 -4.262,-1.581 -5.75,-2.967 -1.488,-1.386 -2.629,-3.179 -3.425,-5.382 -0.795,-2.202 -1.437,-4.914 -1.927,-8.134 l -0.244,-1.957 z m -16.086,-22.019 c 2.609,-1.386 6.809,-2.08 12.6,-2.08 1.957,0 4.006,0.051 6.146,0.154 2.141,0.1 4.19,0.233 6.147,0.397 1.958,0.162 3.639,0.295 5.046,0.398 1.407,0.101 2.334,0.152 2.783,0.152 0.938,0 1.325,-0.53 1.162,-1.59 l -0.611,-5.505 c -0.083,-1.59 -0.592,-2.762 -1.53,-3.516 -0.938,-0.755 -2.161,-1.234 -3.669,-1.438 -2.08,-0.244 -4.74,-0.418 -7.982,-0.519 -3.242,-0.103 -6.942,-0.154 -11.101,-0.154 -6.116,0 -11.051,0.754 -14.801,2.264 -3.752,1.508 -6.586,3.628 -8.502,6.36 -1.917,2.732 -3.049,6.056 -3.394,9.97 -0.348,3.914 -0.153,8.338 0.581,13.272 0.856,5.912 2.241,10.857 4.158,14.833 1.917,3.975 4.332,7.145 7.248,9.51 2.915,2.365 6.3,4.027 10.153,4.985 3.854,0.958 8.186,1.437 12.997,1.437 5.586,0 10.123,-0.541 13.609,-1.621 3.486,-1.08 6.156,-2.477 8.012,-4.19 1.855,-1.712 3.017,-3.638 3.487,-5.779 0.468,-2.141 0.56,-4.292 0.275,-6.453 C 26.32,6.095 25.586,3.689 24.526,1.651 23.465,-0.389 22.008,-2.11 20.153,-3.518 18.297,-4.924 16.044,-6.076 13.395,-6.973 10.743,-7.87 7.604,-8.646 3.976,-9.297 l -24.282,-4.221 c 0.203,-4.281 1.61,-7.116 4.22,-8.501"
             style="fill:#231f20;fill-opacity:1;fill-rule:nonzero;stroke:none"
             id="path44" /></g><g
           id="g46"
           transform="translate(944.3347,137.6674)"><path
             d="m 0,0 -22.753,-4.221 c -4.444,-0.855 -6.972,-3.119 -7.583,-6.789 -0.531,-3.057 0.498,-5.106 3.088,-6.146 2.589,-1.04 6.208,-1.56 10.856,-1.56 2.487,0 5.067,0.122 7.738,0.367 2.67,0.245 4.576,0.49 5.718,0.734 z m -33.242,-27.768 c -3.446,1.101 -6.004,2.539 -7.676,4.312 -1.672,1.773 -2.63,3.74 -2.875,5.902 -0.244,2.161 -0.183,4.343 0.184,6.544 0.897,5.261 3.303,9.154 7.217,11.683 3.915,2.527 9.419,4.465 16.514,5.81 3.14,0.49 5.851,0.917 8.135,1.285 2.283,0.367 4.19,0.703 5.719,1.008 1.529,0.306 2.772,0.581 3.73,0.827 0.958,0.244 1.764,0.489 2.416,0.733 0.652,0.245 1.122,0.521 1.407,0.826 0.285,0.306 0.51,0.887 0.673,1.743 0.489,3.058 -0.163,5.23 -1.957,6.514 -1.795,1.284 -5.281,1.927 -10.459,1.927 -6.85,0 -11.988,-0.276 -15.413,-0.826 -3.425,-0.55 -5.75,-0.826 -6.973,-0.826 -0.733,0 -1.019,0.428 -0.856,1.285 l 0.734,5.382 c 0.122,1.59 0.642,2.722 1.56,3.395 0.917,0.673 2.069,1.131 3.455,1.376 1.916,0.244 4.516,0.489 7.799,0.733 3.281,0.245 7.309,0.367 12.079,0.367 9.215,0 15.658,-1.681 19.328,-5.045 3.669,-3.365 4.832,-9.042 3.486,-17.034 L 9.48,-22.63 c -0.489,-2.936 -2.324,-4.648 -5.504,-5.138 -3.385,-0.612 -7.085,-1.04 -11.102,-1.285 -4.016,-0.244 -8.002,-0.366 -11.957,-0.366 -5.994,0 -10.713,0.55 -14.159,1.651"
             style="fill:#231f20;fill-opacity:1;fill-rule:nonzero;stroke:none"
             id="path48" /></g><g
           id="g50"
           transform="translate(1011.8131,121.7651)"><path
             d="m 0,0 5.321,34.189 c 0.162,0.979 -0.224,1.652 -1.162,2.019 -1.061,0.245 -2.529,0.448 -4.404,0.612 -1.876,0.162 -3.955,0.244 -6.238,0.244 -3.711,0 -6.841,-0.235 -9.389,-0.703 -2.548,-0.469 -4.689,-1.427 -6.422,-2.875 -1.733,-1.447 -3.099,-3.486 -4.098,-6.116 -1,-2.63 -1.845,-6.168 -2.538,-10.611 -0.53,-3.263 -0.765,-6.035 -0.703,-8.319 0.061,-2.284 0.631,-4.149 1.712,-5.596 1.08,-1.448 2.773,-2.498 5.077,-3.15 2.303,-0.653 5.432,-0.978 9.388,-0.978 2.65,0 5.291,0.122 7.921,0.366 C -2.905,-0.673 -1.061,-0.367 0,0 m -42.141,-37.31 c -2.814,0.328 -3.996,1.876 -3.547,4.649 l 1.039,5.443 c 0.123,0.939 0.591,1.407 1.407,1.407 1.346,-0.122 3.659,-0.418 6.942,-0.886 3.281,-0.469 8.389,-0.704 15.321,-0.704 3.629,0 6.564,0.235 8.808,0.704 2.241,0.468 4.056,1.304 5.443,2.507 1.386,1.204 2.416,2.763 3.089,4.679 0.673,1.917 1.212,4.261 1.62,7.033 -1.223,-0.122 -3.079,-0.244 -5.565,-0.367 -2.488,-0.122 -5.342,-0.182 -8.563,-0.182 -4.078,0 -7.921,0.366 -11.529,1.1 -3.609,0.734 -6.697,2.181 -9.266,4.343 -2.569,2.16 -4.414,5.189 -5.535,9.082 -1.123,3.894 -1.173,9.022 -0.153,15.383 0.734,4.81 1.804,9.175 3.211,13.089 1.406,3.914 3.465,7.278 6.177,10.092 2.711,2.813 6.3,4.974 10.765,6.483 4.464,1.508 10.061,2.263 16.789,2.263 4.321,0 8.216,-0.214 11.682,-0.642 3.465,-0.429 6.829,-0.989 10.091,-1.683 3.059,-0.367 4.363,-2.059 3.915,-5.076 L 12.171,-8.318 c -0.897,-5.749 -2.14,-10.551 -3.731,-14.404 -1.59,-3.853 -3.71,-6.952 -6.36,-9.297 -2.652,-2.344 -5.944,-4.026 -9.878,-5.045 -3.936,-1.019 -8.737,-1.53 -14.404,-1.53 -4.893,0 -8.951,0.122 -12.171,0.367 -3.222,0.245 -5.811,0.55 -7.768,0.917"
             style="fill:#231f20;fill-opacity:1;fill-rule:nonzero;stroke:none"
             id="path52" /></g><g
           id="g54"
           transform="translate(1070.545,143.8452)"><path
             d="m 0,0 c 2.731,0.448 4.923,0.937 6.575,1.468 1.651,0.529 2.925,1.121 3.822,1.773 0.897,0.652 1.519,1.406 1.866,2.263 0.346,0.856 0.601,1.875 0.764,3.059 0.368,2.568 -0.377,4.443 -2.232,5.626 -1.856,1.182 -5.21,1.774 -10.061,1.774 -3.547,0 -6.494,-0.296 -8.838,-0.887 -2.346,-0.592 -4.262,-1.581 -5.75,-2.967 -1.488,-1.386 -2.629,-3.179 -3.425,-5.382 -0.795,-2.202 -1.437,-4.914 -1.927,-8.134 l -0.244,-1.957 z m -16.086,-22.019 c 2.609,-1.386 6.809,-2.08 12.6,-2.08 1.957,0 4.006,0.051 6.146,0.154 2.141,0.1 4.19,0.233 6.147,0.397 1.958,0.162 3.639,0.295 5.046,0.398 1.407,0.101 2.334,0.152 2.783,0.152 0.938,0 1.324,-0.53 1.162,-1.59 l -0.611,-5.505 c -0.083,-1.59 -0.592,-2.762 -1.53,-3.516 -0.938,-0.755 -2.161,-1.234 -3.669,-1.438 -2.08,-0.244 -4.74,-0.418 -7.982,-0.519 -3.242,-0.103 -6.942,-0.154 -11.101,-0.154 -6.116,0 -11.051,0.754 -14.801,2.264 -3.752,1.508 -6.586,3.628 -8.502,6.36 -1.917,2.732 -3.049,6.056 -3.394,9.97 -0.348,3.914 -0.153,8.338 0.581,13.272 0.856,5.912 2.241,10.857 4.158,14.833 1.917,3.975 4.332,7.145 7.248,9.51 2.915,2.365 6.3,4.027 10.153,4.985 3.854,0.958 8.186,1.437 12.997,1.437 5.586,0 10.123,-0.541 13.609,-1.621 3.486,-1.08 6.156,-2.477 8.012,-4.19 1.855,-1.712 3.017,-3.638 3.487,-5.779 0.468,-2.141 0.56,-4.292 0.275,-6.453 C 26.32,6.095 25.586,3.689 24.526,1.651 23.465,-0.389 22.008,-2.11 20.153,-3.518 18.297,-4.924 16.044,-6.076 13.395,-6.973 10.743,-7.87 7.604,-8.646 3.976,-9.297 l -24.282,-4.221 c 0.203,-4.281 1.61,-7.116 4.22,-8.501"
             style="fill:#231f20;fill-opacity:1;fill-rule:nonzero;stroke:none"
             id="path56" /></g><g
           id="g58"
           transform="translate(283.4137,129.3998)"><path
             d="m 0,0 c -0.829,11.458 -2.692,21.976 -6.249,32.161 -3.963,11.346 -9.914,21.505 -18.127,30.272 -1.585,1.691 -1.794,3.101 -1.236,5.244 11.487,44.045 -15.312,88.084 -59.904,97.109 -30.037,6.079 -55.501,-3.275 -75.939,-26.148 -0.589,-0.66 -1.132,-1.363 -1.712,-2.034 -0.142,-0.164 -0.344,-0.274 -0.656,-0.516 -8.761,8.95 -14.049,19.714 -16.735,31.851 -1.93,8.716 -2.296,17.552 -1.982,26.443 0.217,6.136 4.575,8.618 10.101,5.559 6.297,-3.486 12.537,-7.08 18.712,-10.776 1.817,-1.088 3.227,-1.205 5.166,-0.223 7.131,3.616 14.627,6.32 22.44,8.065 1.711,0.381 2.57,1.159 3.018,2.933 1.788,7.081 3.743,14.121 5.672,21.167 1.494,5.45 3.837,7.195 9.54,7.197 8.202,0.001 16.403,0.022 24.604,-0.016 4.42,-0.018 7.051,-2.007 8.221,-6.251 2.263,-8.215 4.479,-16.444 6.66,-24.683 0.419,-1.583 0.967,-2.693 2.752,-3.298 6.409,-2.168 12.586,-4.918 18.379,-8.43 1.612,-0.979 2.801,-0.668 4.252,0.179 7.269,4.243 14.572,8.423 21.869,12.614 4.708,2.702 7.749,2.294 11.596,-1.543 5.726,-5.713 11.459,-11.422 17.165,-17.156 3.517,-3.531 3.969,-6.684 1.481,-11.07 -4.426,-7.801 -8.862,-15.599 -13.446,-23.307 -1.107,-1.861 -1.128,-3.29 -0.145,-5.177 2.609,-5.013 4.752,-10.249 6.291,-15.692 0.546,-1.932 1.472,-2.901 3.467,-3.406 8.367,-2.118 16.684,-4.427 25.022,-6.662 5.715,-1.532 7.645,-4.042 7.638,-9.949 -0.009,-7.98 10e-4,-15.96 -0.027,-23.938 C 37.871,75.796 35.894,73.144 31.261,71.854 22.838,69.512 14.404,67.207 5.939,65.026 4.02,64.533 2.918,63.803 2.381,61.756 0.742,55.53 -1.698,49.579 -4.658,43.865 -5.48,42.278 -5.407,41.097 -4.521,39.589 -0.309,32.43 3.803,25.214 7.931,18.007 10.601,13.347 10.164,10.195 6.374,6.39 4.426,4.434 2.475,2.481 0,0"
             style="fill:#231f20;fill-opacity:1;fill-rule:evenodd;stroke:none"
             id="path60" /></g><g
           id="g62"
           transform="translate(237.4298,260.6801)"><path
             d="m 0,0 c -18.286,-0.404 -33.663,-7.118 -48.81,-14.642 -4.653,-2.311 -9.411,-4.442 -14.227,-6.393 -13.993,-5.671 -26.678,-2.993 -38.159,6.4 -2.566,2.1 -4.866,4.525 -7.399,6.67 -1.956,1.658 -2.041,2.595 0.448,3.93 11.22,6.022 23.134,10.02 35.558,12.561 12.672,2.59 25.42,3.669 38.284,1.405 0.742,-0.13 1.529,-0.017 2.284,0.282 -25.727,9.203 -50.909,6.013 -75.86,-3.688 11.3,11.68 24.537,19.297 40.853,20.574 17.772,1.388 33.536,-4.671 48.42,-13.629 C -12.286,9.664 -6.275,5.399 0,0"
             style="fill:#58595b;fill-opacity:1;fill-rule:evenodd;stroke:none"
             id="path64" /></g><g
           id="g66"
           transform="translate(251.5607,226.4809)"><path
             d="m 0,0 c -15.899,10.317 -32.52,15.414 -51.017,11.94 18.244,0.025 33.984,-6.886 48.513,-17.385 2.654,-1.92 2.193,-2.945 -0.275,-4.258 -2.05,-1.088 -3.981,-2.405 -6.06,-3.429 -7.951,-3.915 -15.791,-3.727 -23.443,0.868 -1.233,0.741 -2.465,1.489 -3.635,2.324 -10.877,7.749 -21.127,16.601 -35.699,19.464 15.585,8.091 30.587,13.771 47.535,9.336 C -14.55,16.368 -5.087,8.988 0,0"
             style="fill:#58595b;fill-opacity:1;fill-rule:evenodd;stroke:none"
             id="path68" /></g><g
           id="g70"
           transform="translate(87.3004,313.6157)"><path
             d="m 0,0 c 0.436,-8.439 1.177,-16.217 3.083,-23.847 5.146,-20.581 17.473,-35.715 35.282,-46.713 15.192,-9.383 31.911,-15.242 48.639,-21.082 14.943,-5.214 29.984,-10.184 44.173,-17.313 14.138,-7.102 26.693,-16.169 35.94,-29.283 9.109,-12.918 13.559,-27.493 15.204,-43.037 0.395,-3.743 0.449,-7.519 0.796,-11.266 0.236,-2.548 -0.333,-3.234 -3.069,-2.468 -18.542,5.185 -37.108,10.278 -55.397,16.323 -21.899,7.239 -43.319,15.595 -63.396,27.085 -19.026,10.887 -36.078,24.115 -49.186,41.946 -11.867,16.143 -18.873,34.215 -21.311,54.081 -0.052,0.419 -0.124,0.836 -0.394,1.234 -0.625,-8.251 0.176,-16.427 1.438,-24.553 6.128,-39.453 28.128,-68.312 60.465,-90.203 24.134,-16.336 50.782,-27.373 78.156,-36.843 7.515,-2.599 15.111,-4.968 22.773,-7.478 C 108.633,-234.934 38.819,-229.529 -5.171,-175.351 -49.484,-120.775 -42.564,-45.652 0,0"
             style="fill:#ec7000;fill-opacity:1;fill-rule:evenodd;stroke:none"
             id="path72" /></g></g></g></g></svg>
